<svg width="100" height="100" viewBox="0 0 100 100" fill="none" xmlns="http://www.w3.org/2000/svg">
<path d="M5.85743 68.0256C5.95326 68.2422 6.06159 68.4422 6.17826 68.6422C6.23243 68.7589 6.30743 68.8797 6.3741 68.9881C6.48243 69.2047 6.5991 69.4131 6.7116 69.6214L7.36577 70.7214C7.48661 70.9256 7.60328 71.1256 7.74078 71.3256C7.96995 71.7173 8.24078 72.1006 8.47829 72.4923C8.58662 72.6548 8.68662 72.8173 8.80746 72.9798C9.26579 73.6923 9.68247 74.2839 10.1283 74.8589C10.445 75.2881 10.7616 75.709 11.1033 76.1298C11.2158 76.2881 11.3408 76.4465 11.4575 76.6048L12.3783 77.7215C12.4908 77.8506 12.6033 78.0006 12.7242 78.134C13.1325 78.6256 13.5658 79.1007 13.9992 79.584C13.9992 79.5923 14.0117 79.6007 14.02 79.6132C14.5575 80.2882 15.1367 80.8882 15.77 81.4215L15.7867 81.4382C16.12 81.7798 16.4534 82.1173 16.8075 82.4507L17.2284 82.8549C17.6909 83.2882 18.1534 83.7174 18.6409 84.134C18.6492 84.134 18.6534 84.1424 18.6617 84.1465L18.8992 84.3549C19.3242 84.7257 19.7534 85.0924 20.1909 85.434L20.7118 85.8715C21.0659 86.1549 21.4326 86.4215 21.7951 86.7007L22.3618 87.1341C22.7493 87.4257 23.1618 87.7091 23.5576 87.9924C23.7034 88.0966 23.8493 88.2007 23.9993 88.2966L24.1201 88.3924L25.291 89.1591L25.791 89.4924C26.4035 89.8841 27.0118 90.2507 27.6202 90.6174C27.7952 90.7049 27.9702 90.8008 28.1327 90.9008C28.5827 91.1591 29.0493 91.4216 29.5035 91.6591C29.7535 91.8008 30.0118 91.9216 30.2702 92.0508C30.5827 92.2258 30.9077 92.3966 31.241 92.5716C31.3327 92.6008 31.4077 92.6299 31.4827 92.6716L31.4994 92.6549C31.6369 92.7174 31.766 92.7841 31.8994 92.8508C32.3994 93.1008 32.9202 93.3383 33.4619 93.5716C33.5619 93.6133 33.6702 93.6549 33.7786 93.7133C34.3786 93.9758 34.9786 94.2258 35.5994 94.4675C35.7411 94.5091 35.8911 94.58 36.0369 94.6341C36.5994 94.8466 37.1786 95.0633 37.7536 95.2675L37.9619 95.3425C38.5994 95.5591 39.2286 95.7675 39.8786 95.9633C40.0286 96.005 40.1828 96.0591 40.3411 96.1008C41.0036 96.3008 41.6453 96.5383 42.3162 96.6633C85.1208 104.426 97.5584 71.0547 97.5584 71.0547C87.1083 84.5965 68.5623 88.1674 50.9996 84.1924C50.3496 84.0424 49.6996 83.834 49.0412 83.6424C48.112 83.3794 47.1907 83.089 46.2787 82.7715L46.6745 82.8923L46.4162 82.7923C45.8495 82.6007 45.3037 82.3882 44.7495 82.1757C44.6139 82.1182 44.4763 82.0653 44.337 82.0173L44.2912 82.0048C43.6787 81.759 43.0828 81.509 42.4912 81.2465C42.362 81.2048 42.2536 81.1465 42.1245 81.0965C41.4237 80.7911 40.7291 80.4716 40.0411 80.1382L40.6161 80.3923C40.4661 80.326 40.3188 80.2537 40.1745 80.1757C39.7828 79.9923 39.3911 79.784 39.0078 79.5882C38.7158 79.4498 38.4282 79.3025 38.1453 79.1465L38.2286 79.1881C37.7578 78.9381 37.2869 78.6673 36.8119 78.4131C36.6703 78.3131 36.5078 78.2298 36.3453 78.1381C35.6392 77.7278 34.9418 77.3027 34.2536 76.8631L34.5161 77.0215C34.3397 76.9125 34.1673 76.7972 33.9994 76.6756L34.0244 76.6923C33.5766 76.4172 33.1374 76.1282 32.7077 75.8256C32.566 75.734 32.4369 75.634 32.291 75.534C31.8421 75.2275 31.4003 74.9108 30.966 74.5839L31.066 74.6548C30.891 74.5131 30.7035 74.3798 30.516 74.2423C30.1494 73.9548 29.7785 73.6798 29.4118 73.3798L28.9202 72.9881C28.3962 72.5712 27.8821 72.1419 27.3785 71.7006L27.3743 71.6964L25.9285 70.3839L25.5118 69.9922C25.1701 69.6464 24.8201 69.3172 24.4701 68.9756L24.066 68.5589C23.6346 68.1317 23.2136 67.694 22.8034 67.2464L22.7784 67.2172L22.7076 67.1589C22.2664 66.6744 21.8317 66.184 21.4034 65.688C21.2909 65.5589 21.1868 65.4214 21.0701 65.2839L20.1242 64.138C19.6979 63.6025 19.2811 63.0593 18.8742 62.5088L18.7076 62.2755C8.96579 49.042 5.44075 30.7794 13.2367 15.7959L6.35326 24.5001C-2.501 37.1628 -1.40515 53.6296 5.36575 67.0755C5.51992 67.4047 5.69076 67.713 5.85743 68.0256V68.0256Z" fill="#1266A9"/>
<path d="M35.6786 49.7837L35.6327 49.717L35.5952 49.667L35.6786 49.7837Z" fill="black"/>
<path d="M40.3369 55.2504L40.7119 55.6254C41.1869 56.0837 41.6744 56.5295 42.1703 56.9754L42.2328 57.0295C42.7328 57.4712 43.2953 57.9337 43.8744 58.3837L43.9619 58.4504C44.1036 58.5462 44.2244 58.6587 44.3619 58.7546C44.9453 59.2046 45.5328 59.6337 46.1453 60.0629L46.2078 60.1004C46.4661 60.2879 46.7411 60.4587 47.0328 60.6421C47.1495 60.7171 47.2828 60.8171 47.4078 60.8921C47.8495 61.1754 48.2828 61.4379 48.7286 61.7088C48.7995 61.7379 48.862 61.7754 48.9286 61.8046C49.3037 62.0338 49.712 62.2546 50.1037 62.4546C50.2412 62.5379 50.3745 62.6004 50.5162 62.6796C50.7953 62.8171 51.0703 62.9629 51.337 63.1046L51.4703 63.1629C52.0328 63.4379 52.6079 63.6963 53.1704 63.9504C53.312 64.0046 53.4329 64.0504 53.5537 64.1088C54.0162 64.3088 54.487 64.5005 54.9495 64.6755C55.1579 64.7463 55.3537 64.8296 55.5495 64.8921C55.9745 65.0505 56.4204 65.1963 56.8412 65.3421L57.4246 65.5296C58.0329 65.7171 58.6496 65.963 59.2954 66.063C92.3499 71.5047 100 46.1836 100 46.1836C93.1124 56.0462 79.7831 60.7462 65.5788 57.0754C64.8698 56.8966 64.1666 56.6951 63.4705 56.4712L63.708 56.5379C63.508 56.4837 63.333 56.4212 63.1413 56.3629C62.708 56.2129 62.2621 56.067 61.8413 55.9129L61.2413 55.6879C60.7746 55.5004 60.2996 55.3254 59.8454 55.1254C59.7038 55.0629 59.5746 55.0212 59.4663 54.9587C58.8829 54.6962 58.2954 54.4379 57.7246 54.1628L56.8662 53.717L56.3704 53.467C55.9871 53.267 55.6329 53.0587 55.2662 52.8462C55.1727 52.8022 55.0822 52.7521 54.9954 52.6962L55.0079 52.7003C54.5662 52.4253 54.1079 52.1587 53.6829 51.8795C53.5412 51.8003 53.412 51.7045 53.2787 51.6212L52.412 51.0587C51.812 50.642 51.2245 50.1961 50.6287 49.7628C50.4953 49.642 50.3662 49.542 50.237 49.4336C43.9911 44.5461 39.0661 37.8669 36.7285 30.3043C34.266 22.4417 34.8077 13.6249 39.0619 6.4707L33.8327 13.8374C27.4118 23.0084 27.7743 35.2668 32.7743 44.9669C33.6868 46.7586 34.6118 48.2711 35.6327 49.7128C36.5827 51.0712 37.6327 52.6628 38.8994 53.7545C39.3494 54.267 39.8327 54.7545 40.3369 55.2504V55.2504Z" fill="#1266A9"/>
<path d="M56.9413 5.86254C53.1537 11.3918 52.7912 18.2585 55.3996 24.3544C58.1704 30.8294 63.833 35.9128 70.4331 38.3212C70.7039 38.4254 70.9664 38.5129 71.2456 38.6129L71.6123 38.7254C71.9956 38.8462 72.3831 38.9879 72.7789 39.0754C91.0333 42.5796 95.975 29.7503 97.3042 27.8628C92.9583 34.0711 85.6708 35.5628 76.729 33.4003C75.9515 33.2107 75.1862 32.9742 74.4373 32.692L74.5748 32.7378C73.6429 32.4153 72.7303 32.0397 71.8414 31.6128L71.9998 31.6836C70.2914 30.8503 68.8247 29.9503 67.4622 28.9169C59.4705 22.8752 54.5287 11.3709 59.7455 2L56.9413 5.86254Z" fill="#1266A9"/>
</svg>
