<svg width="100" height="100" viewBox="0 0 100 100" fill="none" xmlns="http://www.w3.org/2000/svg">
<g clip-path="url(#clip0_112_101)">
<path d="M100 0H0V100H100V0Z" fill="#F7DF1E"/>
<path d="M67.1746 78.1249C69.1889 81.4138 71.8095 83.8313 76.4444 83.8313C80.3381 83.8313 82.8254 81.8853 82.8254 79.1964C82.8254 75.9741 80.2698 74.8329 75.9841 72.9583L73.6349 71.9503C66.8539 69.0614 62.3492 65.4424 62.3492 57.7916C62.3492 50.744 67.719 45.3789 76.1111 45.3789C82.0857 45.3789 86.3809 47.4583 89.4762 52.9027L82.1587 57.6011C80.5476 54.7122 78.8095 53.5741 76.1111 53.5741C73.3587 53.5741 71.6143 55.3202 71.6143 57.6011C71.6143 60.4202 73.3603 61.5614 77.392 63.3075L79.7413 64.3138C87.7254 67.7376 92.2333 71.2281 92.2333 79.0757C92.2333 87.536 85.5873 92.171 76.6619 92.171C67.9349 92.171 62.2968 88.0122 59.5381 82.5614L67.1746 78.1249ZM33.9793 78.9392C35.4555 81.5583 36.7984 83.7726 40.027 83.7726C43.1143 83.7726 45.0619 82.5646 45.0619 77.8678V45.9154H54.4587V77.9948C54.4587 87.7249 48.7539 92.1535 40.427 92.1535C32.9032 92.1535 28.546 88.2599 26.3301 83.5702L33.9793 78.9392Z" fill="black"/>
</g>
<defs>
<clipPath id="clip0_112_101">
<rect width="100" height="100" fill="white"/>
</clipPath>
</defs>
</svg>
