<svg width="134" height="52" viewBox="0 0 134 52" fill="none" xmlns="http://www.w3.org/2000/svg">
<path d="M38.6259 13.032C38.6259 13.848 38.5299 14.616 38.3379 15.336C38.1619 16.056 37.8419 16.688 37.3779 17.232C36.9299 17.76 36.3139 18.184 35.5299 18.504C34.7619 18.808 33.7859 18.96 32.6019 18.96C31.5139 18.96 30.5779 18.832 29.7939 18.576C29.0099 18.304 28.3619 17.992 27.8499 17.64L29.0979 14.736C29.5619 15.008 30.0579 15.248 30.5859 15.456C31.1139 15.664 31.6899 15.768 32.3139 15.768C33.2259 15.768 33.8819 15.544 34.2819 15.096C34.6819 14.648 34.8819 13.896 34.8819 12.84V1.99199H38.6259V13.032ZM46.817 16.128C47.169 16.128 47.505 16.12 47.825 16.104C48.145 16.088 48.401 16.064 48.593 16.032V13.32C48.449 13.288 48.233 13.256 47.945 13.224C47.657 13.192 47.393 13.176 47.153 13.176C46.817 13.176 46.497 13.2 46.193 13.248C45.905 13.28 45.649 13.352 45.425 13.464C45.201 13.576 45.025 13.728 44.897 13.92C44.769 14.112 44.705 14.352 44.705 14.64C44.705 15.2 44.889 15.592 45.257 15.816C45.641 16.024 46.161 16.128 46.817 16.128ZM46.529 5.66399C47.585 5.66399 48.465 5.78399 49.169 6.02399C49.873 6.26399 50.433 6.60799 50.849 7.05599C51.281 7.50399 51.585 8.04799 51.761 8.68799C51.937 9.32799 52.025 10.04 52.025 10.824V18.264C51.513 18.376 50.801 18.504 49.889 18.648C48.977 18.808 47.873 18.888 46.577 18.888C45.761 18.888 45.017 18.816 44.345 18.672C43.689 18.528 43.121 18.296 42.641 17.976C42.161 17.64 41.793 17.208 41.537 16.68C41.281 16.152 41.153 15.504 41.153 14.736C41.153 14 41.297 13.376 41.585 12.864C41.889 12.352 42.289 11.944 42.785 11.64C43.281 11.336 43.849 11.12 44.489 10.992C45.129 10.848 45.793 10.776 46.481 10.776C46.945 10.776 47.353 10.8 47.705 10.848C48.073 10.88 48.369 10.928 48.593 10.992V10.656C48.593 10.048 48.409 9.55999 48.041 9.19199C47.673 8.82399 47.033 8.63999 46.121 8.63999C45.513 8.63999 44.913 8.68799 44.321 8.78399C43.729 8.86399 43.217 8.98399 42.785 9.14399L42.329 6.26399C42.537 6.19999 42.793 6.13599 43.097 6.07199C43.417 5.99199 43.761 5.92799 44.129 5.87999C44.497 5.81599 44.881 5.76799 45.281 5.73599C45.697 5.68799 46.113 5.66399 46.529 5.66399ZM66.1619 5.99999C65.4419 8.43199 64.6899 10.712 63.9059 12.84C63.1219 14.968 62.2659 17.032 61.3379 19.032C61.0019 19.752 60.6659 20.36 60.3299 20.856C59.9939 21.368 59.6259 21.784 59.2259 22.104C58.8259 22.44 58.3699 22.68 57.8579 22.824C57.3619 22.984 56.7779 23.064 56.1059 23.064C55.5459 23.064 55.0259 23.008 54.5459 22.896C54.0819 22.8 53.6979 22.688 53.3939 22.56L54.0179 19.704C54.3859 19.832 54.7139 19.92 55.0019 19.968C55.2899 20.016 55.5939 20.04 55.9139 20.04C56.5539 20.04 57.0419 19.864 57.3779 19.512C57.7299 19.176 58.0259 18.704 58.2659 18.096C57.4499 16.496 56.6339 14.704 55.8179 12.72C55.0019 10.72 54.2339 8.47999 53.5139 5.99999H57.3059C57.4659 6.62399 57.6499 7.30399 57.8579 8.03999C58.0819 8.75999 58.3139 9.49599 58.5539 10.248C58.7939 10.984 59.0339 11.704 59.2739 12.408C59.5299 13.112 59.7699 13.752 59.9939 14.328C60.2019 13.752 60.4179 13.112 60.6419 12.408C60.8659 11.704 61.0819 10.984 61.2899 10.248C61.5139 9.49599 61.7219 8.75999 61.9139 8.03999C62.1219 7.30399 62.3059 6.62399 62.4659 5.99999H66.1619ZM67.1508 12.408C67.1508 11.288 67.3188 10.312 67.6548 9.47999C68.0068 8.63199 68.4628 7.92799 69.0228 7.36799C69.5828 6.80799 70.2228 6.38399 70.9428 6.09599C71.6788 5.80799 72.4308 5.66399 73.1988 5.66399C74.9908 5.66399 76.4068 6.21599 77.4468 7.31999C78.4868 8.40799 79.0068 10.016 79.0068 12.144C79.0068 12.352 78.9988 12.584 78.9828 12.84C78.9668 13.08 78.9508 13.296 78.9348 13.488H70.8228C70.9028 14.224 71.2468 14.808 71.8548 15.24C72.4628 15.672 73.2788 15.888 74.3028 15.888C74.9588 15.888 75.5988 15.832 76.2228 15.72C76.8628 15.592 77.3828 15.44 77.7828 15.264L78.2628 18.168C78.0708 18.264 77.8148 18.36 77.4948 18.456C77.1748 18.552 76.8148 18.632 76.4148 18.696C76.0308 18.776 75.6148 18.84 75.1668 18.888C74.7188 18.936 74.2708 18.96 73.8228 18.96C72.6868 18.96 71.6948 18.792 70.8468 18.456C70.0148 18.12 69.3188 17.664 68.7588 17.088C68.2148 16.496 67.8068 15.8 67.5348 15C67.2788 14.2 67.1508 13.336 67.1508 12.408ZM75.5508 11.04C75.5348 10.736 75.4788 10.44 75.3828 10.152C75.3028 9.86399 75.1668 9.60799 74.9748 9.38399C74.7988 9.15999 74.5668 8.97599 74.2788 8.83199C74.0068 8.68799 73.6628 8.61599 73.2468 8.61599C72.8468 8.61599 72.5028 8.68799 72.2148 8.83199C71.9268 8.95999 71.6868 9.13599 71.4948 9.35999C71.3028 9.58399 71.1508 9.84799 71.0388 10.152C70.9428 10.44 70.8708 10.736 70.8228 11.04H75.5508ZM85.3904 16.056C86.0464 16.056 86.5104 15.992 86.7824 15.864C87.0544 15.736 87.1904 15.488 87.1904 15.12C87.1904 14.832 87.0144 14.584 86.6624 14.376C86.3104 14.152 85.7744 13.904 85.0544 13.632C84.4944 13.424 83.9824 13.208 83.5184 12.984C83.0704 12.76 82.6864 12.496 82.3664 12.192C82.0464 11.872 81.7984 11.496 81.6224 11.064C81.4464 10.632 81.3584 10.112 81.3584 9.50399C81.3584 8.31999 81.7984 7.38399 82.6784 6.69599C83.5584 6.00799 84.7664 5.66399 86.3024 5.66399C87.0704 5.66399 87.8064 5.73599 88.5104 5.87999C89.2144 6.00799 89.7744 6.15199 90.1904 6.31199L89.5664 9.09599C89.1504 8.95199 88.6944 8.82399 88.1984 8.71199C87.7184 8.59999 87.1744 8.54399 86.5664 8.54399C85.4464 8.54399 84.8864 8.85599 84.8864 9.47999C84.8864 9.62399 84.9104 9.75199 84.9584 9.86399C85.0064 9.97599 85.1024 10.088 85.2464 10.2C85.3904 10.296 85.5824 10.408 85.8224 10.536C86.0784 10.648 86.3984 10.776 86.7824 10.92C87.5664 11.208 88.2144 11.496 88.7264 11.784C89.2384 12.056 89.6384 12.36 89.9264 12.696C90.2304 13.016 90.4384 13.376 90.5504 13.776C90.6784 14.176 90.7424 14.64 90.7424 15.168C90.7424 16.416 90.2704 17.36 89.3264 18C88.3984 18.64 87.0784 18.96 85.3664 18.96C84.2464 18.96 83.3104 18.864 82.5584 18.672C81.8224 18.48 81.3104 18.32 81.0224 18.192L81.6224 15.288C82.2304 15.528 82.8544 15.72 83.4944 15.864C84.1344 15.992 84.7664 16.056 85.3904 16.056ZM93.4149 18.624V0.575992L96.9909 -7.62939e-06V6.04799C97.2309 5.96799 97.5349 5.89599 97.9029 5.83199C98.2869 5.75199 98.6549 5.71199 99.0069 5.71199C100.031 5.71199 100.879 5.85599 101.551 6.14399C102.239 6.41599 102.783 6.80799 103.183 7.31999C103.599 7.83199 103.887 8.43999 104.047 9.14399C104.223 9.84799 104.311 10.632 104.311 11.496V18.624H100.735V11.928C100.735 10.776 100.583 9.95999 100.279 9.47999C99.9909 8.99999 99.4469 8.75999 98.6469 8.75999C98.3269 8.75999 98.0229 8.79199 97.7349 8.85599C97.4629 8.90399 97.2149 8.95999 96.9909 9.02399V18.624H93.4149ZM12.6 31.768C12.792 32.424 13 33.168 13.224 34C13.464 34.816 13.712 35.664 13.968 36.544C14.24 37.424 14.512 38.304 14.784 39.184C15.056 40.064 15.32 40.88 15.576 41.632C15.784 40.816 15.992 39.928 16.2 38.968C16.424 38.008 16.632 37.016 16.824 35.992C17.016 34.968 17.2 33.952 17.376 32.944C17.568 31.92 17.744 30.936 17.904 29.992H21.792C21.232 32.776 20.584 35.6 19.848 38.464C19.128 41.328 18.344 44.048 17.496 46.624H14.064C13.504 45.088 12.96 43.48 12.432 41.8C11.904 40.104 11.384 38.408 10.872 36.712C10.36 38.408 9.84802 40.104 9.33602 41.8C8.82402 43.48 8.28802 45.088 7.72802 46.624H4.29602C3.44802 44.048 2.65602 41.328 1.92002 38.464C1.20002 35.6 0.56002 32.776 1.95652e-05 29.992H4.05602C4.21602 30.936 4.39202 31.92 4.58402 32.944C4.77602 33.952 4.97602 34.968 5.18402 35.992C5.39202 37.016 5.60002 38.008 5.80802 38.968C6.03202 39.928 6.25602 40.816 6.48002 41.632C6.76802 40.848 7.04802 40.016 7.32002 39.136C7.59202 38.256 7.85602 37.376 8.11202 36.496C8.36802 35.616 8.60002 34.768 8.80802 33.952C9.03202 33.136 9.23202 32.408 9.40802 31.768H12.6ZM22.561 40.408C22.561 39.288 22.729 38.312 23.065 37.48C23.417 36.632 23.873 35.928 24.433 35.368C24.993 34.808 25.633 34.384 26.353 34.096C27.089 33.808 27.841 33.664 28.609 33.664C30.401 33.664 31.817 34.216 32.857 35.32C33.897 36.408 34.417 38.016 34.417 40.144C34.417 40.352 34.409 40.584 34.393 40.84C34.377 41.08 34.361 41.296 34.345 41.488H26.233C26.313 42.224 26.657 42.808 27.265 43.24C27.873 43.672 28.689 43.888 29.713 43.888C30.369 43.888 31.009 43.832 31.633 43.72C32.273 43.592 32.793 43.44 33.193 43.264L33.673 46.168C33.481 46.264 33.225 46.36 32.905 46.456C32.585 46.552 32.225 46.632 31.825 46.696C31.441 46.776 31.025 46.84 30.577 46.888C30.129 46.936 29.681 46.96 29.233 46.96C28.097 46.96 27.105 46.792 26.257 46.456C25.425 46.12 24.729 45.664 24.169 45.088C23.625 44.496 23.217 43.8 22.945 43C22.689 42.2 22.561 41.336 22.561 40.408ZM30.961 39.04C30.945 38.736 30.889 38.44 30.793 38.152C30.713 37.864 30.577 37.608 30.385 37.384C30.209 37.16 29.977 36.976 29.689 36.832C29.417 36.688 29.073 36.616 28.657 36.616C28.257 36.616 27.913 36.688 27.625 36.832C27.337 36.96 27.097 37.136 26.905 37.36C26.713 37.584 26.561 37.848 26.449 38.152C26.353 38.44 26.281 38.736 26.233 39.04H30.961ZM45.2646 40.216C45.2646 37.912 44.4166 36.76 42.7206 36.76C42.3526 36.76 41.9846 36.808 41.6166 36.904C41.2646 37 40.9766 37.12 40.7526 37.264V43.768C40.9286 43.8 41.1526 43.832 41.4246 43.864C41.6966 43.88 41.9926 43.888 42.3126 43.888C43.2886 43.888 44.0246 43.552 44.5206 42.88C45.0166 42.208 45.2646 41.32 45.2646 40.216ZM48.9126 40.312C48.9126 41.32 48.7606 42.232 48.4566 43.048C48.1686 43.864 47.7446 44.56 47.1846 45.136C46.6246 45.712 45.9366 46.16 45.1206 46.48C44.3046 46.784 43.3766 46.936 42.3366 46.936C41.9046 46.936 41.4486 46.912 40.9686 46.864C40.5046 46.832 40.0406 46.784 39.5766 46.72C39.1286 46.656 38.6966 46.584 38.2806 46.504C37.8646 46.408 37.4966 46.312 37.1766 46.216V28.576L40.7526 28V34.288C41.1526 34.112 41.5686 33.976 42.0006 33.88C42.4326 33.784 42.8966 33.736 43.3926 33.736C44.2886 33.736 45.0806 33.896 45.7686 34.216C46.4566 34.52 47.0326 34.96 47.4966 35.536C47.9606 36.112 48.3126 36.808 48.5526 37.624C48.7926 38.424 48.9126 39.32 48.9126 40.312ZM57.6666 46.624V29.992H68.8986V33.136H61.4106V36.4H68.0586V39.472H61.4106V43.48H69.4506V46.624H57.6666ZM77.5129 37.84L80.0089 34H83.7049L79.3849 40.072C80.3449 41.272 81.2169 42.44 82.0009 43.576C82.7849 44.712 83.4089 45.728 83.8729 46.624H80.0329C79.9049 46.384 79.7449 46.088 79.5529 45.736C79.3609 45.368 79.1449 44.992 78.9049 44.608C78.6649 44.208 78.4089 43.816 78.1369 43.432C77.8809 43.032 77.6249 42.672 77.3689 42.352C77.1289 42.656 76.8809 42.992 76.6249 43.36C76.3849 43.728 76.1529 44.104 75.9289 44.488C75.7049 44.856 75.4809 45.224 75.2569 45.592C75.0489 45.96 74.8649 46.304 74.7049 46.624H71.0569C71.2489 46.224 71.5129 45.752 71.8489 45.208C72.1849 44.664 72.5449 44.104 72.9289 43.528C73.3289 42.936 73.7449 42.352 74.1769 41.776C74.6089 41.184 75.0329 40.632 75.4489 40.12C74.7289 39.112 74.0089 38.096 73.2889 37.072C72.5689 36.032 71.8569 35.008 71.1529 34H75.0169L77.5129 37.84ZM93.874 40.408C93.874 39.304 93.626 38.424 93.13 37.768C92.634 37.096 91.898 36.76 90.922 36.76C90.602 36.76 90.306 36.776 90.034 36.808C89.762 36.824 89.538 36.848 89.362 36.88V43.336C89.586 43.48 89.874 43.6 90.226 43.696C90.594 43.792 90.962 43.84 91.33 43.84C93.026 43.84 93.874 42.696 93.874 40.408ZM97.522 40.312C97.522 41.288 97.402 42.176 97.162 42.976C96.922 43.776 96.57 44.464 96.106 45.04C95.642 45.616 95.066 46.064 94.378 46.384C93.69 46.704 92.898 46.864 92.002 46.864C91.506 46.864 91.042 46.816 90.61 46.72C90.178 46.624 89.762 46.488 89.362 46.312V51.064H85.786V34.432C86.106 34.336 86.474 34.248 86.89 34.168C87.306 34.072 87.738 33.992 88.186 33.928C88.65 33.864 89.114 33.816 89.578 33.784C90.058 33.736 90.514 33.712 90.946 33.712C91.986 33.712 92.914 33.872 93.73 34.192C94.546 34.496 95.234 34.936 95.794 35.512C96.354 36.072 96.778 36.76 97.066 37.576C97.37 38.392 97.522 39.304 97.522 40.312ZM112.078 40.288C112.078 41.28 111.934 42.192 111.646 43.024C111.358 43.84 110.942 44.544 110.398 45.136C109.854 45.712 109.198 46.16 108.43 46.48C107.678 46.8 106.83 46.96 105.886 46.96C104.958 46.96 104.11 46.8 103.342 46.48C102.59 46.16 101.942 45.712 101.398 45.136C100.854 44.544 100.43 43.84 100.126 43.024C99.8223 42.192 99.6703 41.28 99.6703 40.288C99.6703 39.296 99.8223 38.392 100.126 37.576C100.446 36.76 100.878 36.064 101.422 35.488C101.982 34.912 102.638 34.464 103.39 34.144C104.158 33.824 104.99 33.664 105.886 33.664C106.798 33.664 107.63 33.824 108.382 34.144C109.15 34.464 109.806 34.912 110.35 35.488C110.894 36.064 111.318 36.76 111.622 37.576C111.926 38.392 112.078 39.296 112.078 40.288ZM108.43 40.288C108.43 39.184 108.206 38.32 107.758 37.696C107.326 37.056 106.702 36.736 105.886 36.736C105.07 36.736 104.438 37.056 103.99 37.696C103.542 38.32 103.318 39.184 103.318 40.288C103.318 41.392 103.542 42.272 103.99 42.928C104.438 43.568 105.07 43.888 105.886 43.888C106.702 43.888 107.326 43.568 107.758 42.928C108.206 42.272 108.43 41.392 108.43 40.288ZM122.456 37.168C122.136 37.088 121.76 37.008 121.328 36.928C120.896 36.832 120.432 36.784 119.936 36.784C119.712 36.784 119.44 36.808 119.12 36.856C118.816 36.888 118.584 36.928 118.424 36.976V46.624H114.848V34.672C115.488 34.448 116.24 34.24 117.104 34.048C117.984 33.84 118.96 33.736 120.032 33.736C120.224 33.736 120.456 33.752 120.728 33.784C121 33.8 121.272 33.832 121.544 33.88C121.816 33.912 122.088 33.96 122.36 34.024C122.632 34.072 122.864 34.136 123.056 34.216L122.456 37.168ZM124.853 30.856L128.429 30.28V34H132.725V36.976H128.429V41.416C128.429 42.168 128.557 42.768 128.813 43.216C129.085 43.664 129.621 43.888 130.421 43.888C130.805 43.888 131.197 43.856 131.597 43.792C132.013 43.712 132.389 43.608 132.725 43.48L133.229 46.264C132.797 46.44 132.317 46.592 131.789 46.72C131.261 46.848 130.613 46.912 129.845 46.912C128.869 46.912 128.061 46.784 127.421 46.528C126.781 46.256 126.269 45.888 125.885 45.424C125.501 44.944 125.229 44.368 125.069 43.696C124.925 43.024 124.853 42.28 124.853 41.464V30.856Z" fill="white"/>
</svg>
