<svg width="100" height="98" viewBox="0 0 100 98" fill="none" xmlns="http://www.w3.org/2000/svg">
<rect width="100" height="97.5" fill="#001E36"/>
<path d="M36.3336 26C35.0836 26 33.8336 26 32.5422 26.0422C31.25 26.0836 30.0414 26.0836 28.9164 26.1258C27.7914 26.1672 26.75 26.1672 25.75 26.2086C24.7914 26.25 24.125 26.25 23.4164 26.25C23.125 26.25 23 26.4164 23 26.7086V69.5836C23 69.9586 23.1664 70.1258 23.5 70.1258H31.5836C31.875 70.0836 32.0836 69.8336 32.0414 69.5422V56.1672C32.8328 56.1672 33.4164 56.1672 33.8336 56.2086C34.25 56.25 34.9164 56.25 35.9164 56.25C39.3336 56.25 42.4586 55.875 45.2914 54.8336C48 53.8336 50.3336 52.0836 52 49.75C53.6667 47.4167 54.5 44.4583 54.5 40.875C54.5 39 54.1672 37.2086 53.5422 35.4586C52.8799 33.6757 51.8425 32.0558 50.5 30.7086C48.9155 29.1692 47.0082 28.002 44.9164 27.2914C42.5828 26.4164 39.75 26 36.3336 26ZM37.2633 34.207C38.7477 34.2352 40.193 34.4945 41.5414 35.0414C42.75 35.5 43.75 36.3336 44.4586 37.4164C45.1231 38.5371 45.4556 39.8235 45.4172 41.1258C45.4172 42.9586 45 44.3758 44.125 45.4172C43.2078 46.4586 42.0414 47.2508 40.7086 47.6258C39.1664 48.1258 37.5414 48.375 35.9164 48.375H33.7078C33.2078 48.375 32.6672 48.3336 32.0836 48.2922V34.2922C32.375 34.25 32.9586 34.2086 33.7922 34.2508C34.5836 34.2086 35.5414 34.2086 36.625 34.2086C36.8385 34.2034 37.0513 34.2029 37.2633 34.207ZM72.2086 36.3344C69.25 36.3344 66.7914 36.7922 64.8336 37.7922C63.0422 38.6258 61.5 39.9586 60.4586 41.625C59.5422 43.1672 59.0414 44.875 59.0414 46.6672C59.0058 48.1412 59.3351 49.6012 60 50.9172C60.7793 52.3185 61.8612 53.5283 63.1672 54.4586C65.0001 55.7122 66.9891 56.7208 69.0836 57.4586C71.125 58.25 72.5 58.875 73.1672 59.4164C73.8336 59.9586 74.1672 60.5 74.1672 61.0836C74.1672 61.8336 73.7086 62.5422 73.0422 62.8336C72.2922 63.2086 71.1672 63.4172 69.5836 63.4172C67.9172 63.4172 66.25 63.2086 64.6664 62.7922C62.8481 62.3861 61.1048 61.6973 59.5 60.7508C59.375 60.6672 59.25 60.6258 59.125 60.7094C59 60.7922 58.9586 60.9586 58.9586 61.0836V68.3336C58.9172 68.6672 59.125 68.9586 59.4172 69.125C60.7684 69.7562 62.1976 70.2047 63.6672 70.4586C65.5422 70.8336 67.4164 71 69.3328 71C72.3328 71 74.8336 70.5422 76.875 69.6672C78.75 68.9172 80.375 67.6258 81.5414 65.9586C82.6338 64.3196 83.2007 62.3866 83.1664 60.4172C83.2075 58.9295 82.8784 57.4548 82.2086 56.1258C81.4164 54.7086 80.2914 53.5422 78.9164 52.6672C76.9049 51.404 74.7511 50.3828 72.5 49.625C71.4947 49.2089 70.5076 48.7502 69.5414 48.25C69 47.9586 68.5 47.5836 68.125 47.125C67.875 46.7914 67.7086 46.4172 67.7086 46.0422C67.7086 45.6672 67.8336 45.2508 68.0414 44.9172C68.3336 44.5008 68.7914 44.2086 69.3328 44.0836C70.125 43.8758 71 43.75 71.8328 43.7914C73.4164 43.7914 74.9578 44 76.5 44.3336C77.9172 44.625 79.25 45.0836 80.5 45.7508C80.6664 45.8336 80.875 45.8336 81.25 45.7508C81.3151 45.7025 81.3679 45.6396 81.4042 45.5671C81.4404 45.4946 81.459 45.4146 81.4586 45.3336V38.5422C81.4586 38.375 81.4164 38.2086 81.375 38.0422C81.2914 37.8758 81.125 37.7086 80.9586 37.6672C79.8094 37.1975 78.6052 36.8754 77.375 36.7086C75.6641 36.4595 73.9375 36.3349 72.2086 36.3344Z" fill="#31A8FF"/>
</svg>
