<svg width="100" height="100" viewBox="0 0 100 100" fill="none" xmlns="http://www.w3.org/2000/svg">
<g clip-path="url(#clip0_112_107)">
<path d="M0 50.0006C0 64.5264 22.3859 76.3029 50 76.3029C77.6141 76.3029 100 64.5264 100 50.0006C100 35.4748 77.6133 23.6982 50 23.6982C22.3867 23.6982 0 35.4748 0 50.0006Z" fill="url(#paint0_radial_112_107)"/>
<path d="M50 74.3498C76.5352 74.3498 98.0469 63.4475 98.0469 50.0006C98.0469 36.5521 76.5352 25.6514 50 25.6514C23.4648 25.6514 1.95312 36.5521 1.95312 50.0006C1.95312 63.4475 23.4648 74.3498 50 74.3498Z" fill="#777BB3"/>
<path d="M27.1654 53.0188C29.3475 53.0188 30.9756 52.6164 32.0061 51.8234C33.0264 51.0375 33.7303 49.6773 34.0998 47.7805C34.4436 46.007 34.3123 44.7695 33.7092 44.1008C33.0936 43.418 31.7615 43.0719 29.7506 43.0719H26.2631L24.3311 53.0188H27.1654ZM15.76 65.2711C15.6799 65.271 15.6009 65.2532 15.5286 65.2189C15.4563 65.1847 15.3925 65.1348 15.3417 65.073C15.2909 65.0112 15.2544 64.9389 15.2349 64.8613C15.2154 64.7837 15.2133 64.7027 15.2287 64.6242L20.3514 38.2664C20.3756 38.1432 20.4417 38.0322 20.5386 37.9523C20.6355 37.8723 20.757 37.8285 20.8826 37.8281H31.9248C35.3951 37.8281 37.9779 38.7703 39.6021 40.6289C41.2334 42.4961 41.7381 45.1086 41.0998 48.3906C40.8396 49.7273 40.3928 50.9688 39.7717 52.0813C39.1253 53.2257 38.3004 54.2595 37.3279 55.1438C36.1318 56.2625 34.7779 57.075 33.3068 57.5523C31.86 58.0242 30.0006 58.2633 27.7834 58.2633H23.3115L22.035 64.832C22.0109 64.9557 21.9445 65.0671 21.8473 65.1472C21.7501 65.2273 21.6281 65.2711 21.5021 65.2711H15.76Z" fill="black"/>
<path d="M26.711 43.6131H29.7509C32.1782 43.6131 33.0212 44.1459 33.3079 44.4639C33.7821 44.9904 33.8727 46.1021 33.5665 47.6764C33.2235 49.4396 32.5876 50.6904 31.6759 51.392C30.7431 52.1107 29.2243 52.4748 27.1657 52.4748H24.9891L26.711 43.6131ZM31.9251 37.285H20.8837C20.6319 37.285 20.3879 37.3725 20.1935 37.5325C19.9992 37.6926 19.8664 37.9152 19.8181 38.1623L14.6954 64.5209C14.6651 64.6779 14.6699 64.8397 14.7094 64.9946C14.7489 65.1495 14.8222 65.2939 14.9239 65.4172C15.0256 65.5406 15.1533 65.64 15.2979 65.7083C15.4425 65.7766 15.6003 65.8121 15.7602 65.8123H21.5024C21.7542 65.8121 21.9981 65.7244 22.1923 65.5642C22.3865 65.404 22.5191 65.1813 22.5673 64.9342L23.7587 58.8045H27.7829C30.0579 58.8045 31.9735 58.5561 33.4759 58.067C35.0204 57.5654 36.4415 56.7146 37.6993 55.5381C38.7123 54.6158 39.5718 53.538 40.2454 52.3451C40.8946 51.1834 41.3618 49.8865 41.6321 48.4928C42.304 45.0373 41.7579 42.2709 40.0102 40.2709C38.279 38.2889 35.5587 37.2842 31.9251 37.2842V37.285ZM23.6727 53.5592H27.1657C29.4808 53.5597 31.2048 53.1235 32.3376 52.2506C33.4704 51.3787 34.2355 49.9227 34.6329 47.8826C35.0121 45.9232 34.8389 44.541 34.1134 43.7357C33.3868 42.9305 31.9326 42.5279 29.7509 42.5279H25.8165L23.6727 53.5592ZM31.9259 38.3678C35.2477 38.3678 37.6704 39.2396 39.1938 40.9834C40.7173 42.7271 41.1756 45.161 40.5688 48.285C40.3178 49.5725 39.8946 50.749 39.2993 51.8146C38.703 52.8813 37.924 53.8571 36.9626 54.742C35.8168 55.8149 34.5428 56.5792 33.1407 57.035C31.7391 57.4912 29.9535 57.7191 27.7837 57.7186H22.8649L21.5032 64.7264H15.761L20.8845 38.3678H31.9259Z" fill="white"/>
<path d="M54.2646 58.2633C54.1846 58.2634 54.1055 58.2457 54.033 58.2116C53.9606 58.1775 53.8966 58.1278 53.8456 58.0661C53.7947 58.0043 53.7581 57.932 53.7384 57.8544C53.7187 57.7768 53.7165 57.6958 53.7318 57.6172L55.9974 45.9547C56.2138 44.8453 56.1607 44.05 55.849 43.7125C55.6576 43.507 55.0841 43.1625 53.3881 43.1625H49.2818L46.4334 57.825C46.4089 57.9485 46.3423 58.0596 46.245 58.1394C46.1477 58.2192 46.0256 58.2627 45.8998 58.2625H40.2045C40.1245 58.2626 40.0454 58.2449 39.973 58.2109C39.9006 58.1768 39.8366 58.1272 39.7857 58.0655C39.7347 58.0039 39.6979 57.9317 39.6781 57.8542C39.6583 57.7767 39.6558 57.6958 39.6709 57.6172L44.7943 31.2586C44.8186 31.1351 44.885 31.0239 44.9822 30.944C45.0793 30.864 45.2013 30.8203 45.3271 30.8203H51.0224C51.1024 30.8203 51.1815 30.8379 51.2539 30.8719C51.3263 30.906 51.3902 30.9556 51.4412 31.0173C51.4922 31.0789 51.5289 31.1511 51.5488 31.2286C51.5686 31.3061 51.5711 31.3871 51.556 31.4656L50.3201 37.8281H54.7365C58.1013 37.8281 60.3826 38.4203 61.7115 39.6414C63.0654 40.8859 63.4888 42.8758 62.9677 45.5578L60.5841 57.825C60.5597 57.9483 60.4933 58.0594 60.3961 58.1392C60.2989 58.219 60.1771 58.2625 60.0513 58.2625L54.2646 58.2633Z" fill="black"/>
<path d="M51.0235 30.2773H45.3274C45.0755 30.2774 44.8315 30.365 44.6371 30.5252C44.4427 30.6854 44.31 30.9082 44.2618 31.1555L39.1392 57.5133C39.1088 57.6703 39.1135 57.8322 39.1529 57.9872C39.1923 58.1423 39.2655 58.2867 39.3673 58.4101C39.469 58.5336 39.5968 58.633 39.7414 58.7014C39.8861 58.7697 40.044 58.8053 40.204 58.8055H45.9001C46.152 58.8054 46.396 58.7178 46.5904 58.5576C46.7848 58.3974 46.9175 58.1746 46.9657 57.9273L49.729 43.7047H53.3868C55.0806 43.7047 55.4368 44.0664 55.4501 44.0828C55.5532 44.1922 55.6884 44.7039 55.4649 45.8516L53.1993 57.5133C53.1689 57.6704 53.1736 57.8323 53.2131 57.9874C53.2526 58.1425 53.3259 58.287 53.4277 58.4104C53.5295 58.5339 53.6574 58.6333 53.8021 58.7016C53.9468 58.7699 54.1049 58.8054 54.2649 58.8055H60.0524C60.3042 58.8052 60.5481 58.7175 60.7423 58.5573C60.9365 58.3972 61.0691 58.1745 61.1173 57.9273L63.5009 45.6617C64.0595 42.782 63.5813 40.6227 62.079 39.2422C60.6446 37.925 58.2431 37.2852 54.7368 37.2852H50.979L52.0892 31.5703C52.1197 31.4131 52.1151 31.2511 52.0756 31.0959C52.0362 30.9407 51.963 30.7962 51.8611 30.6726C51.7593 30.5491 51.6314 30.4495 51.4866 30.3812C51.3418 30.3129 51.1836 30.2774 51.0235 30.2773ZM51.0235 31.3633L49.6618 38.3695H54.7368C57.93 38.3695 60.1324 38.9268 61.3438 40.0414C62.5563 41.1549 62.9204 42.9596 62.436 45.4555L60.0516 57.7203H54.2649L56.5313 46.0578C56.7892 44.7312 56.6941 43.8266 56.2462 43.3437C55.7983 42.8615 54.8457 42.6203 53.3884 42.6203H48.8345L45.9001 57.7195H40.2032L45.3267 31.3609H51.0235V31.3633Z" fill="white"/>
<path d="M71.9813 53.0188C74.1633 53.0188 75.7922 52.6164 76.8235 51.8234C77.8422 51.0375 78.5469 49.6773 78.9165 47.7805C79.2602 46.007 79.1297 44.7695 78.5258 44.1008C77.9102 43.418 76.5782 43.0719 74.5672 43.0719H71.0805L69.1469 53.0188H71.9813ZM60.5782 65.2711C60.498 65.2712 60.4188 65.2536 60.3463 65.2194C60.2738 65.1853 60.2098 65.1355 60.1588 65.0736C60.1079 65.0118 60.0713 64.9394 60.0517 64.8617C60.032 64.7839 60.0299 64.7029 60.0454 64.6242L65.168 38.2664C65.1923 38.1429 65.2587 38.0317 65.3559 37.9518C65.4531 37.8718 65.575 37.8281 65.7008 37.8281H76.7422C80.2125 37.8281 82.7954 38.7703 84.4188 40.6289C86.0508 42.4961 86.5547 45.1086 85.9164 48.3906C85.6722 49.6834 85.2242 50.9291 84.5891 52.0813C83.9428 53.2257 83.1178 54.2595 82.1454 55.1438C80.95 56.2625 79.5946 57.075 78.1243 57.5523C76.6774 58.0242 74.818 58.2633 72.6 58.2633H68.129L66.8532 64.832C66.829 64.9558 66.7626 65.0673 66.6652 65.1474C66.5679 65.2275 66.4457 65.2712 66.3196 65.2711H60.5782Z" fill="black"/>
<path d="M71.5272 43.6131H74.567C76.9944 43.6131 77.8373 44.1459 78.1233 44.4639C78.5998 44.9904 78.6889 46.1021 78.3834 47.6764C78.0397 49.4396 77.4037 50.6904 76.492 51.392C75.5584 52.1107 74.0397 52.4748 71.9819 52.4748H69.8053L71.5272 43.6131ZM76.7412 37.285H65.6998C65.4482 37.2852 65.2044 37.3728 65.0102 37.5328C64.816 37.6928 64.6833 37.9153 64.635 38.1623L59.5116 64.5209C59.4813 64.678 59.4861 64.8398 59.5256 64.9948C59.5652 65.1498 59.6385 65.2941 59.7403 65.4175C59.8421 65.5409 59.9699 65.6403 60.1146 65.7085C60.2593 65.7768 60.4172 65.8122 60.5772 65.8123H66.3194C66.5711 65.8121 66.815 65.7244 67.0092 65.5642C67.2035 65.404 67.336 65.1813 67.3842 64.9342L68.5756 58.8045H72.5991C74.8733 58.8045 76.7897 58.5561 78.2912 58.067C79.8366 57.5654 81.2577 56.7146 82.5162 55.5373C83.5289 54.6152 84.3881 53.5376 85.0616 52.3451C85.7116 51.1834 86.1772 49.8865 86.4483 48.4928C87.1202 45.0373 86.5748 42.2709 84.8264 40.2709C83.0952 38.2889 80.3756 37.2842 76.7405 37.2842L76.7412 37.285ZM68.4889 53.5592H71.9811C74.2962 53.5597 76.0207 53.1235 77.1545 52.2506C78.2873 51.3787 79.0519 49.9227 79.4483 47.8826C79.829 45.9232 79.6558 44.541 78.9287 43.7357C78.2017 42.9305 76.7478 42.5279 74.567 42.5279H70.6334L68.4889 53.5592ZM76.7412 38.3678C80.0631 38.3678 82.4858 39.2396 84.0092 40.9834C85.5327 42.7271 85.9907 45.161 85.3834 48.285C85.1334 49.5725 84.7105 50.749 84.1147 51.8146C83.5188 52.8813 82.7397 53.8571 81.7772 54.742C80.6314 55.8149 79.3574 56.5792 77.9553 57.035C76.5543 57.4912 74.7689 57.7191 72.5991 57.7186H67.6811L66.3178 64.7264H60.5756L65.6991 38.3678H76.7412Z" fill="white"/>
</g>
<defs>
<radialGradient id="paint0_radial_112_107" cx="0" cy="0" r="1" gradientUnits="userSpaceOnUse" gradientTransform="translate(30.0203 32.9451) scale(65.6573 65.6573)">
<stop stop-color="#AEB2D5"/>
<stop offset="0.3" stop-color="#AEB2D5"/>
<stop offset="0.75" stop-color="#484C89"/>
<stop offset="1" stop-color="#484C89"/>
</radialGradient>
<clipPath id="clip0_112_107">
<rect width="100" height="100" fill="white"/>
</clipPath>
</defs>
</svg>
