<svg width="118" height="90" viewBox="0 0 118 90" fill="none" xmlns="http://www.w3.org/2000/svg">
<g clip-path="url(#clip0_112_116)">
<path d="M90.8594 69.4531H9.14062C4.0625 69.4531 0 65.3906 0 60.3125V29.0625C0 24.0625 4.0625 20 9.14062 20H90.9375C95.9375 20 100.078 24.0625 100.078 29.1406V60.3906C100 65.3906 95.9375 69.4531 90.8594 69.4531Z" fill="#7F54B3"/>
<path d="M100.078 41.0156L117.5 51.25L113.828 41.0156L103.828 38.2031L100.078 41.0156Z" fill="#7F54B3"/>
<path d="M12.6682 53.6024C12.6682 53.6024 15.2385 61.8489 20.4709 56.328C25.7034 50.807 30.7522 42.1413 30.7522 42.1413C30.7522 42.1413 31.1194 39.9748 32.5881 44.727C34.0569 49.4792 40.3909 55.9087 40.3909 55.9087C40.3909 55.9087 46.1741 61.4296 48.5608 55.6291C47.6428 47.9417 51.1311 33.9647 54.7112 27.2557C56.1799 21.3155 48.01 22.9927 47.2756 24.3904C46.5413 25.7881 41.4924 34.7334 41.1252 44.0981C41.1252 44.0981 36.8108 35.1527 36.4436 31.938C36.0764 28.6534 31.5784 27.8148 29.0081 30.9596C26.4377 34.1045 18.635 46.2645 18.635 46.2645L13.5862 26.4171C13.5862 26.4171 8.53735 21.3155 5.59985 27.5352C5.59985 27.5352 10.8323 51.9252 12.6682 53.6024ZM79.8635 31.938C72.0608 22.0143 60.4944 29.5619 60.4944 29.5619C60.4944 29.5619 51.6819 37.3192 55.6292 47.8719C61.9631 58.2848 70.8674 53.6723 73.2542 52.8337C75.7327 51.9252 86.1975 42.8401 79.8635 31.938ZM73.8967 40.6737C73.8967 44.7969 69.3987 48.6406 65.7268 47.802C63.7073 46.8935 62.4221 44.4475 62.4221 40.2544C64.2581 33.4755 68.2971 32.567 70.4085 32.7068C74.3557 34.3141 74.1721 37.8783 73.8967 40.6737ZM109.147 31.938C101.344 22.0143 89.7776 29.5619 89.7776 29.5619C89.7776 29.5619 80.9651 37.3192 84.9124 47.8719C91.2463 58.2848 100.151 53.6723 102.537 52.8337C104.924 51.9252 115.481 42.8401 109.147 31.938ZM103.18 40.6737C103.18 44.7969 98.6819 48.6406 95.01 47.802C92.9905 46.8935 91.7053 44.4475 91.7053 40.2544C93.5413 33.4755 97.5803 32.567 99.6917 32.7068C103.547 34.3141 103.364 37.8783 103.18 40.6737Z" fill="white"/>
</g>
<defs>
<clipPath id="clip0_112_116">
<rect width="117.5" height="89.4531" fill="white"/>
</clipPath>
</defs>
</svg>
