<svg width="100" height="100" viewBox="0 0 100 100" fill="none" xmlns="http://www.w3.org/2000/svg">
<g clip-path="url(#clip0_112_120)">
<path d="M7.10731 49.999C7.10731 66.9778 16.974 81.6493 31.2815 88.6031L10.8209 32.5426C8.36813 38.0352 7.10267 43.9837 7.10731 49.999V49.999ZM78.9567 47.8345C78.9567 42.5334 77.0525 38.8623 75.4194 36.0048C73.2451 32.4716 71.2079 29.4795 71.2079 25.9463C71.2079 22.0034 74.1976 18.3331 78.4098 18.3331C78.6 18.3331 78.7804 18.3567 78.9664 18.3673C71.3344 11.376 61.1673 7.10742 50.0005 7.10742C35.0155 7.10742 21.8319 14.7958 14.1623 26.4409C15.1687 26.4711 16.1179 26.4915 16.9226 26.4915C21.4091 26.4915 28.3539 25.9471 28.3539 25.9471C30.6661 25.8108 30.9387 29.2069 28.6298 29.4804C28.6298 29.4804 26.3053 29.7538 23.7197 29.8893L39.3396 76.3499L48.7272 48.1977L42.0436 29.8884C39.7338 29.753 37.5457 29.4795 37.5457 29.4795C35.2343 29.3441 35.5052 25.81 37.8166 25.9463C37.8166 25.9463 44.9002 26.4907 49.1149 26.4907C53.6006 26.4907 60.5462 25.9463 60.5462 25.9463C62.8601 25.81 63.1319 29.2061 60.8213 29.4795C60.8213 29.4795 58.4927 29.753 55.912 29.8884L71.4128 75.9973L75.6903 61.7004C77.5455 55.7677 78.9567 51.5064 78.9567 47.8345V47.8345Z" fill="#00749A"/>
<path d="M50.753 53.7508L37.8835 91.1462C41.8181 92.3058 45.8986 92.8945 50.0005 92.8945C54.9955 92.8945 59.7856 92.0301 64.2443 90.4631C64.1247 90.2759 64.0226 90.0781 63.9391 89.8722L50.753 53.7508ZM87.6375 29.4199C87.822 30.7862 87.9265 32.2537 87.9265 33.8305C87.9265 38.1832 87.1135 43.0761 84.665 49.1941L71.563 87.0752C84.3149 79.639 92.8921 65.8237 92.8921 49.9989C92.9035 42.8059 91.096 35.7269 87.6375 29.4199V29.4199Z" fill="#00749A"/>
<path d="M50.0005 0C22.4309 0 0 22.4292 0 49.9988C0 77.5715 22.4301 100.001 50.0005 100.001C77.5692 100.001 100.003 77.5723 100.003 49.9988C100.003 22.4292 77.5692 0 50.0005 0ZM50.0005 97.7081C23.6952 97.7081 2.29263 76.3056 2.29263 49.9988C2.29263 23.6943 23.6944 2.29345 50.0005 2.29345C76.305 2.29345 97.7059 23.6943 97.7059 49.9988C97.7059 76.3056 76.3041 97.7081 50.0005 97.7081Z" fill="#00749A"/>
</g>
<defs>
<clipPath id="clip0_112_120">
<rect width="100.003" height="100.001" fill="white"/>
</clipPath>
</defs>
</svg>
