<svg width="100" height="100" viewBox="0 0 100 100" fill="none" xmlns="http://www.w3.org/2000/svg">
<path d="M17.7083 1H82.2917C92.0833 1 100 8.91667 100 18.7083V80.7917C100 90.5833 92.0833 98.5 82.2917 98.5H17.7083C7.91667 98.5 0 90.5833 0 80.7917V18.7083C0 8.91667 7.91667 1 17.7083 1Z" fill="#470137"/>
<path d="M52.5833 26.625L40.0833 47.25L53.4166 69.125C53.5 69.2917 53.5416 69.4583 53.5 69.625C53.4583 69.7917 53.2916 69.6667 53.0416 69.7083H43.5C42.8333 69.7083 42.375 69.6667 42.0833 69.25C41.2083 67.5 40.2916 65.7917 39.4166 64.0417C38.5416 62.3333 37.5833 60.5833 36.5833 58.7917C35.5833 57 34.5833 55.2083 33.5833 53.375H33.5C32.625 55.1667 31.6666 56.9583 30.7083 58.75C29.75 60.5417 28.7916 62.3333 27.875 64.0833C26.9166 65.8333 25.9583 67.625 25 69.3333C24.8333 69.75 24.5 69.7917 24.0416 69.7917H14.875C14.7083 69.7917 14.5833 69.875 14.5833 69.6667C14.5416 69.5 14.5833 69.3333 14.6666 69.2083L27.625 47.9583L15 26.5833C14.875 26.4167 14.8333 26.25 14.9166 26.1667C15 26.0417 15.1666 26 15.3333 26H24.7916C25 26 25.2083 26.0417 25.375 26.0833C25.5416 26.1667 25.6666 26.2917 25.7916 26.4583C26.5833 28.25 27.5 30.0417 28.4583 31.8333C29.4583 33.625 30.4166 35.375 31.4583 37.125C32.4583 38.875 33.375 40.625 34.25 42.4167H34.3333C35.2083 40.5833 36.125 38.7917 37.0416 37.0417C37.9583 35.2917 38.9166 33.5417 39.875 31.7917C40.8333 30.0417 41.75 28.25 42.6666 26.5417C42.7083 26.375 42.7916 26.2083 42.9166 26.125C43.0833 26.0417 43.25 26 43.4583 26.0417H52.25C52.4583 26 52.6666 26.125 52.7083 26.3333C52.75 26.375 52.6666 26.5417 52.5833 26.625Z" fill="#FF61F6"/>
<path d="M71.8333 70.583C68.7499 70.6246 65.6666 69.9996 62.8749 68.708C60.2499 67.4996 58.0833 65.4996 56.5833 63.0413C55.0416 60.4996 54.2916 57.333 54.2916 53.5413C54.2499 50.458 55.0416 47.4163 56.5833 44.7496C58.1666 42.0413 60.4583 39.7913 63.2083 38.2913C66.1249 36.6663 69.6249 35.8746 73.7499 35.8746C73.9583 35.8746 74.2499 35.8746 74.6249 35.9163C74.9999 35.958 75.4166 35.958 75.9166 35.9996V22.833C75.9166 22.5413 76.0416 22.3746 76.3333 22.3746H84.7916C84.9999 22.333 85.1666 22.4996 85.2083 22.6663C85.2083 22.708 85.2083 22.7496 85.2083 22.7496V62.4163C85.2083 63.1663 85.2499 63.9996 85.2916 64.9163C85.3749 65.7913 85.4166 66.6246 85.4583 67.333C85.4583 67.6246 85.3333 67.8746 85.0416 67.9996C82.8749 68.9163 80.5833 69.583 78.2499 69.9996C76.1249 70.3746 73.9999 70.583 71.8333 70.583ZM75.9166 62.2496V43.9163C75.5416 43.833 75.1666 43.7496 74.7916 43.708C74.3333 43.6663 73.8749 43.6246 73.4166 43.6246C71.7916 43.6246 70.1666 43.958 68.7083 44.708C67.2916 45.4163 66.0833 46.458 65.1666 47.7913C64.2499 49.1246 63.7916 50.9163 63.7916 53.083C63.7499 54.5413 63.9999 55.9996 64.4999 57.3746C64.9166 58.4996 65.5416 59.4996 66.3749 60.333C67.1666 61.083 68.1249 61.6663 69.2083 61.9996C70.3333 62.3746 71.4999 62.5413 72.6666 62.5413C73.2916 62.5413 73.8749 62.4996 74.4166 62.458C74.9583 62.4996 75.4166 62.4163 75.9166 62.2496Z" fill="#FF61F6"/>
</svg>
